Color
C

Release Date
June 19, 1970

Genre
Musical  /  Romance  /  Family Drama

Producer
Chetan Anand

Director
Chetan Anand

Star Cast
Raj Kumar...... Ranjha
Priya Rajvansh...... Heer
Jeevan...... Kaazi
Ajit...... Saida
Pran...... Chhote Choudhury
Jayant...... Choudhury
Tun Tun...... Allah Rakhi
Prithviraj Kapoor...... The King
Ulhas
Baby Tabassum
Padma
Veena
Zeb Rehman
Nana Palsikar
Achla Sachdev
Sonia Sahni...... (Guest Appearance)
Niranajan Sharma
Kamini Kaushal
Padma Khanna
Sapru
Indrani Mukherjee
Dulari
Mumtaz Begum

Singers
Lata Mangeshkar
Mohammed Rafi
Hemlata
Krishna K
Balbir Bittu
Shamshad Begum
Noor Jahan

Lyricist
Kaifi Azmi

Music Director
Madan Mohan

Name : Heer Raanjha 1970 2CD DvDrip ~ Musical | Romance | Drama ~ [RdY]
Ripper : Ajit 
Format : AVI
Format/Info : Audio Video Interleave
File size : 1.37 GiB
Duration : 2h 20mn

Video
ID : 0
Format : MPEG-4 Visual
Format profile : Advanced Simple@L5
Format settings, BVOP : 1
Format settings, QPel : Yes
Format settings, GMC : No warppoints
Format settings, Matrix : Default (MPEG)
Codec ID : XVID
Codec ID/Hint : XviD
Duration : 2h 20mn
Bit rate : 1 159 Kbps
Width : 608 pixels
Height : 448 pixels
Display aspect ratio : 4:3
Frame rate : 23.976 fps
Color space : YUV
Chroma subsampling : 4.2.0
Bit depth : 8 bits
Scan type : Progressive
Compression mode : Lossy
Bits/(Pixel*Frame) : 0.178
Stream size : 1.14 GiB (83%)
Writing library : XviD 1.2.1 (UTC 2008-12-04)

Audio
ID : 1
Format : AC-3
Format/Info : Audio Coding 3
Mode extension : CM (complete main)
Codec ID : 2000
Duration : 2h 20mn
Bit rate mode : Constant
Bit rate : 224 Kbps
Channel(s) : 6 channels
Channel positions : Front: L C R, Side: L R, LFE
Sampling rate : 48.0 KHz
Bit depth : 16 bits
Compression mode : Lossy
Stream size : 225 MiB (16%)
Alignment : Split accross interleaves
Interleave, duration : 42 ms (1.00 video frame)
Interleave, preload duration : 500 ms



